<?xml version="1.0" encoding="UTF-8"?><svg id="uuid-d2f8dffb-a99d-4414-a92f-67ce8837acd8" xmlns="http://www.w3.org/2000/svg" viewBox="0 0 178 100"><path d="M138.76,47.38c.02-1.36-.76-2.45-2.04-2.88-.67-.19-1.35-.32-2.08-.32h-5.59s0,10.11,0,10.11h2.79s0-3.26,0-3.26h1.8s2.06,3.26,2.06,3.26l3.14-.02-2.39-3.55c1.64-.56,2.37-1.66,2.31-3.35ZM135.6,48.56c-.36.26-.74.34-1.16.41h-2.61s0-2.71,0-2.71h2.67c.43.04.82.16,1.14.44.43.55.41,1.31-.05,1.87Z" fill="#fff"/><path d="M78.02,44.62c-.99-.46-2.04-.61-3.14-.6-1.22,0-2.36.26-3.41.86-1.99,1.14-2.73,3.25-2.4,5.49.23,1.59,1.22,2.87,2.68,3.54,1.9.87,4.85.83,6.71-.21,1.25-.7,2.08-1.85,2.31-3.26.41-2.47-.44-4.75-2.75-5.82ZM77.89,50.24c-.45,1.91-2.35,2.43-4.11,1.97-.91-.24-1.55-.94-1.75-1.84-.36-1.58.06-3.38,1.67-3.93,1.54-.53,3.47-.1,4.07,1.53.27.72.3,1.52.13,2.27Z" fill="#fff"/><polygon points="64.84 44.18 64.84 47.96 60.19 47.96 60.19 44.17 57.37 44.18 57.37 54.29 60.19 54.28 60.19 50.14 63 50.13 64.84 50.14 64.84 54.29 67.68 54.28 67.67 44.18 64.84 44.18" fill="#fff"/><path d="M90.27,49.17c-.49-.37-1.07-.63-1.68-.74l-2.19-.41c-.8-.15-1.78-.29-1.77-.99,0-.57.6-.79,1.25-.85,1.26-.11,2.44.18,3.58.81l1.43-1.94c-.5-.31-.93-.49-1.45-.67-2-.58-5.14-.7-6.68.68-.6.54-.77,1.27-.8,2.06-.04,1.12.47,2.07,1.49,2.57.67.32,1.38.45,2.13.6l2.28.45c.37.07.62.41.62.73.02,1.01-1.64,1.06-2.75.94-1.09-.09-2.07-.48-2.99-1.05l-1.37,1.86c.85.61,1.8.98,2.82,1.19,2.16.37,5.85.43,6.78-1.72.48-1.12.31-2.77-.7-3.52Z" fill="#fff"/><path d="M100.71,44.72c-.71-.32-1.49-.52-2.32-.53l-5.79-.02v10.12s2.79,0,2.79,0v-3.02s2.77,0,2.77,0c.78-.04,1.52-.14,2.26-.46,1-.42,1.64-1.29,1.81-2.33.24-1.49-.14-3.03-1.52-3.75ZM99.37,48.3c-.28.56-.76.8-1.34.87h-2.64s0-2.92,0-2.92h2.55c.56.06,1.07.24,1.38.72.17.4.17.87.06,1.32Z" fill="#fff"/><path d="M120.94,44.18l-2.26,5-2.27,5.11h2.79s.72-1.65.72-1.65h4.58s.72,1.66.72,1.66l2.87-.03-4.55-10.11h-2.59ZM120.77,50.63l1.43-3.29,1.43,3.27-2.85.02Z" fill="#fff"/><path d="M151.5,44.17h-2.59s-3.37,7.51-3.37,7.51l-1.15,2.61,2.77.02.72-1.66h4.55s.75,1.66.75,1.66h2.89s-3.3-7.36-3.3-7.36l-1.28-2.77ZM148.72,50.63l1.43-3.29,1.45,3.27h-2.87Z" fill="#fff"/><polygon points="117.19 46.37 117.19 44.17 107.47 44.18 107.47 46.37 110.88 46.38 110.88 54.29 113.67 54.28 113.67 46.38 117.19 46.37" fill="#fff"/><rect x="31.46" y="59.46" width="5.95" height="5.66" fill="#fff"/><rect x="31.48" y="53.3" width="5.93" height="5.72" fill="#fff"/><rect x="31.47" y="41.03" width="5.94" height="5.69" fill="#fff"/><rect x="31.49" y="34.89" width="5.92" height="5.69" fill="#fff"/><rect x="25.05" y="53.3" width="5.9" height="5.72" fill="#fff"/><rect x="25.06" y="34.88" width="5.91" height="5.7" fill="#fff"/><rect x="37.92" y="34.88" width="5.91" height="5.7" fill="#fff"/><rect x="25.05" y="41.03" width="5.91" height="5.69" fill="#fff"/><rect x="37.91" y="41.03" width="5.89" height="5.69" fill="#fff"/><rect x="18.66" y="53.3" width="5.9" height="5.72" fill="#fff"/><rect x="37.92" y="47.17" width="5.89" height="5.67" fill="#fff"/><rect x="37.92" y="53.3" width="5.89" height="5.72" fill="#fff"/><rect x="25.05" y="59.46" width="5.89" height="5.66" fill="#fff"/><rect x="18.66" y="41.03" width="5.9" height="5.69" fill="#fff"/><rect x="37.92" y="59.47" width="5.91" height="5.65" fill="#fff"/><rect x="25.05" y="47.17" width="5.91" height="5.67" fill="#fff"/><rect x="18.66" y="47.17" width="5.9" height="5.67" fill="#fff"/><rect x="44.27" y="47.17" width="5.82" height="5.67" fill="#fff"/><rect x="44.29" y="53.3" width="5.8" height="5.72" fill="#fff"/><rect x="44.29" y="41.03" width="5.8" height="5.69" fill="#fff"/><rect x="140.46" y="44.17" width="2.84" height="10.13" fill="#fff"/><rect x="103.57" y="44.17" width="2.8" height="10.13" fill="#fff"/><path d="M157.31,42.5c-1.12,0-2.03.91-2.03,2.03s.91,2.03,2.03,2.03,2.03-.91,2.03-2.03-.91-2.03-2.03-2.03ZM157.31,46.11c-.87,0-1.58-.71-1.58-1.58s.71-1.58,1.58-1.58,1.58.71,1.58,1.58-.71,1.58-1.58,1.58Z" fill="#fff"/><path d="M158.18,43.91c-.07-.25-.34-.43-.64-.43h-1.04s0,2.07,0,2.07h.53s0-.69,0-.69c.04-.04.31-.05.35.03l.33.66h.59s-.44-.86-.44-.86c.32-.16.41-.47.32-.78ZM157.5,44.39l-.45.03-.02-.53.51.04c.06,0,.14.16.14.22,0,.07-.12.24-.19.24Z" fill="#fff"/></svg>