<?xml version="1.0" encoding="UTF-8"?><svg id="uuid-573cc88d-896a-4e7a-b79b-e27fdb9595cc" xmlns="http://www.w3.org/2000/svg" viewBox="0 0 178 100"><path d="M43.74,35c-5.63-5.06-14.21-6.39-21.13-3.34-4.79,2.04-8.71,6.04-10.65,10.88-1.35,3.32-1.78,7.01-1.23,10.55.7,4.78,3.23,9.25,6.94,12.34,2.94,2.48,6.61,4.04,10.42,4.53.01-.96,0-1.93,0-2.9-3.32-.47-6.74-1.78-8.77-4.57,7.48,0,14.96-.02,22.43,0-2.05,2.77-5.44,4.1-8.75,4.55,0,.96,0,1.93,0,2.9,6.25-.73,12-4.61,15.04-10.12,2.34-4.16,3.07-9.16,2.12-13.82-.86-4.24-3.15-8.17-6.41-11.01ZM17.16,51.1c-.45-1.87.23-3.83,1.34-5.33,1.04-1.4,2.37-2.55,3.61-3.76,2.15-2.17,4.37-4.25,6.5-6.44,1.16-1.22,1.96-2.84,1.9-4.55.87.79,1.76,1.73,1.86,2.97.15,1.49-.79,2.79-1.8,3.79-2.5,2.35-4.85,4.85-7.32,7.23-1.54,1.47-3.21,2.98-3.91,5.06-.59,1.61-.36,3.36.03,4.98-1-1.14-1.9-2.44-2.22-3.95ZM21.77,55.77c-1-1.39-1.44-3.2-.88-4.85.77-2.62,2.95-4.39,4.82-6.23,2.18-2.13,4.34-4.28,6.54-6.39,1.65-1.67,3.47-3.47,3.82-5.91.81.95,1.48,2.17,1.27,3.47-.23,1.77-1.56,3.09-2.78,4.28-2.3,2.32-4.63,4.61-6.97,6.88-1.96,1.83-4.04,3.67-5.18,6.15-.4.81-.54,1.72-.64,2.61ZM25.54,61.42c-1.39-1.18-2.2-2.99-2.06-4.82.15-2.68,1.66-5.09,3.59-6.87,2.67-2.56,5.26-5.19,7.93-7.75,1.39-1.4,2.83-2.84,3.62-4.68.42,1.27.7,2.67.23,3.97-.7,2.07-2.54,3.43-4.03,4.92-1.82,1.87-3.73,3.65-5.57,5.51-1.66,1.59-3.09,3.52-3.69,5.77-.36,1.29-.33,2.65-.03,3.95ZM41.94,51.9c-1.53,1.7-3.25,3.22-4.81,4.89-1.21,1.33-2.21,2.89-2.63,4.65-.47-.77-.89-1.61-.87-2.53.03-1.99,1.04-3.87,2.44-5.25,1.83-1.79,3.72-3.51,5.55-5.3.55-.53,1.05-1.12,1.48-1.76.36,1.83.11,3.85-1.16,5.29ZM43.58,42.76c-.33,1.56-1.49,2.73-2.59,3.8-2.45,2.33-4.82,4.73-7.25,7.07-2,2.09-4.03,4.7-3.72,7.77-.99-1.3-1.87-2.87-1.66-4.57.24-2.05,1.66-3.67,3.1-5.03,2.2-2.18,4.39-4.35,6.61-6.5,1.84-1.87,3.93-3.62,5.09-6.02.36,1.12.7,2.3.41,3.47Z" fill="#fff"/><path d="M92.62,68.08c-.13-.51-.12-1.04-.13-1.57.01-2.63,0-5.26,0-7.9-.83.22-1.68.35-2.52.54-.25.65.93.33.87.96.05,2.52.03,5.04,0,7.55.05.58-.6.63-1,.81.02.1.06.32.07.42,1.23,0,2.46,0,3.69-.01-.06-.53-.64-.56-1-.8Z" fill="#fff"/><path d="M108.14,58.63c-.88.21-1.78.33-2.67.53-.3.52.63.48.91.71.16.8.06,1.63.08,2.45-1.84-.29-3.91.7-4.46,2.56-.57,1.64.37,3.69,2.11,4.09.87.33,1.63-.33,2.34-.74,0,.21,0,.62,0,.83.87-.24,1.76-.42,2.65-.57,0-.11,0-.34,0-.45-.31-.06-.62-.12-.93-.18-.12-3.07-.02-6.15-.05-9.23ZM106.46,67.71c-.5.13-1.04.4-1.53.1-1.11-.54-1.37-1.98-1.16-3.09.12-.78.59-1.73,1.49-1.79.49-.07.84.31,1.21.56,0,1.4,0,2.81,0,4.21Z" fill="#fff"/><path d="M77.99,62.18c-.78-.9-.01-2.47,1.18-2.36,1.08,0,1.6,1.09,1.94,1.95.12-.03.36-.08.49-.1-.09-.71-.18-1.42-.27-2.13-1.32-.39-2.86-.58-4.06.25-1.25.79-1.53,2.74-.5,3.82.91,1.08,2.48,1.3,3.35,2.42.69.91.01,2.47-1.18,2.42-1.39.02-2.12-1.35-2.54-2.47-.13.04-.4.13-.53.17.12.8.25,1.6.4,2.4,1.43.64,3.23.8,4.58-.12,1.27-.81,1.59-2.8.55-3.92-.92-1.08-2.48-1.3-3.42-2.34Z" fill="#fff"/><path d="M63.23,59.25c-2.7,0-5.41,0-8.11,0-.05.9-.13,1.79-.13,2.68.95-.06.6-1.44,1.42-1.73.62-.19,1.28-.14,1.93-.16-.03,2.5.07,5-.05,7.5.08.99-1.42.42-1.42,1.33,1.54.02,3.08,0,4.61.01.02-.12.05-.35.07-.46-.37-.08-.76-.13-1.12-.28-.43-.21-.36-.76-.38-1.16.01-2.32,0-4.63,0-6.95.64.02,1.3-.03,1.92.16.8.32.47,1.62,1.38,1.75-.02-.9-.07-1.81-.14-2.71Z" fill="#fff"/><path d="M66.02,62.3c-2.24.29-3.59,3.01-2.67,5.02.6,1.7,2.98,2.27,4.33,1.11.37-.34,1.07-.75.73-1.34-.69.45-1.54.94-2.37.57-.97-.33-1.28-1.42-1.41-2.32,1.29-.07,2.59-.04,3.86-.3.55-1.43-1.01-3.01-2.47-2.74ZM66.85,64.57c-.7.11-1.42.05-2.13.05.18-.6.33-1.3.93-1.63.84-.42,1.66.95,1.2,1.58Z" fill="#fff"/><path d="M72.73,67.72c-1.78-.52-2.2-3.2-.92-4.4.89-.67,1.82.29,2.58.72.43-.44.65-1.12.02-1.5-2.15-.88-4.9.97-4.94,3.3-.12,1.43.9,2.88,2.34,3.15,1.12.32,2.24-.28,2.95-1.12.28-.2.19-.52.1-.79-.62.4-1.35.93-2.13.65Z" fill="#fff"/><path d="M88.36,67.9c-.45-1.44.07-2.99-.36-4.43-.3-.93-1.43-1.39-2.33-1.1-.82.27-1.65.63-2.28,1.24-.39.44.11,1.09.62,1.07.62.14.62-.63.86-1.01.12-.52.9-.9,1.29-.42.45.41.37,1.06.44,1.61-.97.48-2.06.69-2.99,1.25-.99.84-.29,2.62.91,2.86.79.3,1.44-.38,2.08-.74.29.38.62.86,1.17.81.55-.21,1.04-.54,1.55-.81-.05-.12-.14-.35-.18-.47-.19.03-.57.11-.76.14ZM84.91,67.21c-.28-1.06.96-1.37,1.65-1.78,0,.76,0,1.52,0,2.28-.59.39-1.51.31-1.66-.5Z" fill="#fff"/><path d="M100.39,67.92c-.21-1.85-.05-3.71-.1-5.56-.92.13-1.84.2-2.76.29.13.48.68.5,1.04.73.23,1.35.03,2.74.11,4.11-.64.53-1.93.71-2.2-.3-.28-1.6-.04-3.22-.05-4.83-.86.11-1.72.19-2.59.28.07.43.48.53.82.68.18,1.36,0,2.74.11,4.11.07.77.66,1.5,1.45,1.59.94.21,1.75-.43,2.45-.96,0,.34,0,.67,0,1.01.86-.21,1.73-.4,2.61-.57,0-.11-.02-.33-.02-.45-.3-.05-.59-.09-.88-.14Z" fill="#fff"/><path d="M102.65,40.78c1.23.02,2.46,0,3.7,0,0-.11.03-.33.03-.45-.31-.14-.78-.06-.95-.41-.12-.51-.12-1.04-.12-1.56,0-2.61,0-5.23,0-7.84-.85.22-1.71.39-2.57.53.01.09.04.28.05.38.36.14.97.14.89.69.04,1.77,0,3.54.01,5.3-.02.88.07,1.77-.11,2.65-.41.13-1,.1-.94.69Z" fill="#fff"/><path d="M56.41,32.6c.04,2.31.02,4.62,0,6.93.03.66-.76.67-1.22.79,0,.12.03.36.03.47,1.42-.01,2.84.01,4.26-.02.13-.72-.69-.51-1.09-.69-.45-1.25-.15-2.62-.24-3.92h4.27c-.04,1.18.09,2.38-.09,3.55-.12.72-1.4.2-1.3,1.06,1.48,0,2.97.02,4.45,0,.14-.63-.52-.48-.85-.65-.4-.04-.47-.49-.47-.81-.02-1.86,0-3.71-.01-5.57,0-.52-.04-1.06.13-1.57.32-.28.77-.24,1.16-.34,0-.13-.02-.39-.03-.52-1.39,0-2.79,0-4.18,0-.02.13-.05.38-.06.51.38.1.81.09,1.11.38.27,1.05.09,2.15.14,3.22-1.42,0-2.84,0-4.27,0,.03-1.02-.1-2.05.1-3.06.14-.48.74-.4,1.12-.52,0-.13,0-.39,0-.52-1.4,0-2.8,0-4.21,0,0,.13,0,.4,0,.54.47.09,1.29.05,1.25.74Z" fill="#fff"/><path d="M88.29,33.15c.63.33,1.5-.3,1.33-1.02-.05-.73-1.03-1.08-1.57-.59-.54.42-.41,1.38.24,1.61Z" fill="#fff"/><path d="M91.82,39.31c-.01.66.33,1.37,1,1.56.84.31,1.65-.24,2.35-.64,0-.12-.02-.36-.02-.48-.53.14-1.33.38-1.56-.32-.3-1.43-.09-2.91-.15-4.36h1.44c.02-.17.06-.52.08-.69-.51,0-1.02,0-1.53-.01,0-.74.02-1.48-.04-2.21-.54.36-1.05.77-1.57,1.17,0,.35,0,.7,0,1.05-.16,0-.48,0-.64-.01-.14.23-.28.45-.43.67.36.02.71.03,1.07.05,0,1.41-.02,2.82,0,4.22Z" fill="#fff"/><path d="M71.46,40.37c1.42-.96,1.74-3.06.99-4.53-.69-1.35-2.4-1.95-3.82-1.5-2.11.52-3.08,3.23-1.99,5.05.9,1.67,3.32,2.04,4.82.98ZM68.88,34.95c.71-.5,1.57.18,1.78.89.41,1.16.44,2.48.1,3.66-.14.6-.8,1.07-1.4.8-.9-.39-1.14-1.5-1.26-2.38-.07-1.02-.08-2.26.77-2.98Z" fill="#fff"/><path d="M77.75,40.41c.95-.67,1.03-2.29.08-2.99-.66-.54-1.59-.67-2.17-1.3-.48-.52.05-1.46.74-1.33.73.11,1.06.85,1.37,1.43.12-.01.34-.04.45-.06-.07-.58-.18-1.15-.31-1.72-.85-.25-1.81-.37-2.64.02-.63.28-1.12.88-1.15,1.58-.1.79.42,1.53,1.09,1.89.6.38,1.39.57,1.76,1.23.28.55-.17,1.26-.79,1.23-.69-.06-1.19-.64-1.48-1.22-.2-.29-.28-.77-.78-.68.05.66.07,1.32.23,1.96,1.04.72,2.56.71,3.59-.03Z" fill="#fff"/><path d="M81.86,43.33c-.2-.81-.04-1.68-.1-2.51.36.05.72.2,1.09.1,1.43-.34,2.79-1.34,3.23-2.79.27-1,.21-2.18-.45-3.02-.52-.67-1.41-1.02-2.25-.9-.59.19-1.09.57-1.61.88,0-.35,0-.7.01-1.06-.87.29-1.79.44-2.65.77.12.53,1.06.34.96.98.01,2.41.01,4.81,0,7.21.18.75-1.24.43-.95,1.11,1.17.04,2.35.03,3.52.01.14-.06.42-.17.57-.23-.43-.23-.98-.26-1.36-.57ZM81.77,35.63c.47-.21,1-.51,1.53-.27.93.33,1.24,1.44,1.24,2.33-.03.87-.24,1.95-1.09,2.38-.58.29-1.17-.1-1.67-.37-.03-1.36-.01-2.71,0-4.07Z" fill="#fff"/><path d="M90.61,40.78c.07-.7-.99-.43-.97-1.08-.04-1.84,0-3.68-.02-5.51-.79.23-1.6.37-2.39.56-.04.09-.12.27-.16.36.33.17.93.18.86.7.04,1.31.04,2.62,0,3.93-.02.48-.56.49-.9.6v.46c1.2,0,2.39.01,3.59,0Z" fill="#fff"/><path d="M97.41,40.92c.77.23,1.38-.4,1.97-.77.31.37.68.94,1.24.79.51-.21.99-.51,1.48-.77-.04-.11-.12-.34-.16-.45-.38.14-.99.11-.94-.44-.08-1.15.08-2.32-.09-3.47-.07-.72-.62-1.36-1.32-1.52-.98-.28-1.92.3-2.75.74-.34.24-.89.48-.76.99.08.54.77.65,1.22.56.21-.72.43-1.53,1.27-1.71.66.41.82,1.17.82,1.89-.96.53-2.09.71-3.02,1.29-.96.9-.23,2.68,1.02,2.87ZM99.37,37.35c0,.76,0,1.52,0,2.28-.62.45-1.59.24-1.67-.6-.2-1.01,1.02-1.26,1.67-1.67Z" fill="#fff"/><path d="M83.76,45.99c.08,2.82-.03,5.64.06,8.45,1.51.56,3.35.77,4.7-.29,1.79-1.26,1.98-4.37.03-5.57-.97-.67-2.19-.45-3.14.11,0-1.41,0-2.81,0-4.22-.81.24-1.65.32-2.46.54-.04.09-.12.27-.16.36.34.13.95.11.97.61ZM85.41,49.21c.5-.08,1.05-.2,1.52.07.83.38,1.18,1.36,1.19,2.21.04.96-.15,2.11-1.05,2.66-.69.43-1.67-.19-1.63-.98-.09-1.32-.02-2.64-.03-3.96Z" fill="#fff"/><path d="M142.48,54c-.21-.41-.16-.89-.18-1.33,0-2.73,0-5.46,0-8.19-.82.22-1.66.4-2.5.51-.03.09-.07.28-.1.37.34.16.91.13.95.62.04,2.53.04,5.06,0,7.59.05.57-.56.58-.94.72-.01.11-.03.34-.04.45,1.24.02,2.49.02,3.73,0,0-.55-.57-.54-.93-.74Z" fill="#fff"/><path d="M146.65,53.59c-.04-3.04,0-6.07-.02-9.11-.82.22-1.66.39-2.5.51-.02.09-.07.29-.09.38.27.07.53.17.79.27.22.29.08.7.13,1.04-.02,2.32.02,4.63-.02,6.95.04.67-1.05.4-.98,1.11,1.22.02,2.43,0,3.65,0,0-.11,0-.33,0-.45-.39-.13-1.01-.16-.96-.72Z" fill="#fff"/><path d="M62.89,54.74c.18-.89.37-1.77.52-2.67-.13-.03-.39-.08-.52-.1-.31.77-.63,1.79-1.57,1.96-1.26.24-2.54.1-3.81.1,1.37-2.21,2.83-4.37,4.27-6.54.46-.72,1.01-1.39,1.34-2.18-1.96-.06-3.92,0-5.88-.02-.49.04-.9-.24-1.34-.39-.05.99-.15,1.97-.15,2.97.94-.1.62-1.53,1.51-1.76,1.14-.24,2.33-.06,3.49-.12-1.57,2.36-3.14,4.72-4.71,7.07-.35.54-.81,1.04-.95,1.69,2.6.03,5.2.02,7.81,0Z" fill="#fff"/><path d="M132.85,45.81c.02-.12.07-.37.1-.5-1.45-.03-2.89-.03-4.33,0-.08.84,1.17.37,1.21,1.12.15.98.04,1.97.07,2.96-1.42,0-2.85,0-4.27,0,.02-.98-.08-1.97.08-2.94,0-.78,1.28-.3,1.2-1.14-1.47-.02-2.95-.06-4.42.03.1.82,1.35.31,1.38,1.15.04,2.35.04,4.7,0,7.05,0,.84-1.29.36-1.27,1.19,1.44.03,2.89.03,4.33,0-.02-.12-.06-.37-.08-.49-.41-.12-1.1-.06-1.15-.63-.17-1.15-.05-2.32-.09-3.47,1.42,0,2.85,0,4.27,0-.04,1.15.09,2.31-.08,3.45-.04.83-1.43.24-1.31,1.15,1.48,0,2.95.02,4.43,0-.02-.12-.06-.37-.08-.49-.33-.07-.67-.12-.98-.24-.32-.35-.22-.88-.25-1.32.03-2.06-.05-4.12.04-6.17-.01-.64.72-.6,1.18-.71Z" fill="#fff"/><path d="M151.06,46.44c.26-.76-.73-1.48-1.39-1.05-.47.24-.65.88-.36,1.33.37.72,1.64.54,1.75-.28Z" fill="#fff"/><path d="M81.81,54.01c-.28-1.43.05-2.92-.18-4.36-.12-.84-.91-1.56-1.78-1.49-.88-.05-1.54.64-2.23,1.08-.33-.52-.79-1.04-1.45-1.07-.92-.14-1.66.54-2.37,1.01,0-.36,0-.72,0-1.08-.8.23-1.61.43-2.43.58v.39c.27.15.75.18.75.58.13.85.04,1.72.07,2.57-.02.6.07,1.25-.18,1.82-.26.11-.53.2-.79.28,0,.11,0,.33,0,.44,1.13-.01,2.27.03,3.4-.03-.07-.45-.56-.55-.77-.9-.07-1.36-.02-2.73-.03-4.1.47-.25.99-.61,1.56-.44.56.15.75.79.74,1.3,0,1.06.04,2.13-.03,3.2-.08.53-.96.33-.91.96,1.17.01,2.34.03,3.51-.01-.01-.61-.96-.49-.89-1.11-.04-1.27.06-2.55-.07-3.82.61-.51,1.82-.93,2.2.06.31,1.22.16,2.52.13,3.77.05.48-.46.56-.81.67,0,.11-.02.34-.03.45,1.13.01,2.26.01,3.39,0,0-.11-.03-.33-.03-.44-.26-.08-.51-.18-.75-.29Z" fill="#fff"/><path d="M110.14,53.85c-.12-1.31.04-2.63-.08-3.95-.08-.84-.67-1.69-1.57-1.73-.91-.16-1.62.51-2.31.98,0-.35,0-.7,0-1.05-.81.25-1.64.44-2.48.59,0,.09,0,.28,0,.37.27.17.79.21.79.62.04,1.3.03,2.6,0,3.9.06.72-1.06.44-1.04,1.15,1.19.03,2.38.03,3.57,0-.06-.56-.9-.54-.83-1.12-.03-1.3,0-2.6-.01-3.9.49-.27,1.08-.67,1.66-.38.64.31.65,1.12.66,1.73-.03.96.09,1.95-.12,2.9-.3.23-.7.35-.78.77,1.13.04,2.26.02,3.4.01,0-.11-.03-.33-.03-.45-.28-.13-.68-.13-.82-.45Z" fill="#fff"/><path d="M151.21,53.97c-.2-.31-.16-.71-.18-1.06,0-1.59,0-3.17,0-4.76-.78.24-1.59.34-2.38.56l-.24.31c.32.2.97.17.96.68.03,1.44.09,2.89-.06,4.32-.4.16-.99.16-.96.73,1.24,0,2.48.03,3.73-.02-.03-.49-.54-.54-.88-.76Z" fill="#fff"/><path d="M70.37,53.67c-.3.02-.6.03-.9.02-.45-1.41.09-2.96-.33-4.38-.34-.94-1.51-1.37-2.42-1.04-.76.26-1.52.61-2.14,1.14-.49.36-.03,1.12.48,1.13,1.05.19.6-1.55,1.62-1.62.9-.09,1.04,1.12,1.02,1.79-.92.53-1.99.7-2.91,1.24-1.05.78-.41,2.59.77,2.87.81.37,1.52-.33,2.16-.73.25.44.61.76,1.12.89.51-.28,1.01-.55,1.53-.81,0-.12,0-.36,0-.49ZM67.68,53.61c-.66.45-1.6.13-1.66-.71-.1-.96,1.02-1.2,1.66-1.58,0,.76,0,1.53,0,2.29Z" fill="#fff"/><path d="M90.64,54.74c1.27.02,2.55,0,3.83,0,0-.12,0-.35,0-.47-.37-.1-.79-.09-1.09-.36-.13-.95-.03-1.92-.06-2.88-.07-.59.25-1.27.85-1.44.44.09.84.49,1.31.3.64-.39.63-1.53-.18-1.73-.96-.22-1.53.75-2,1.41.02-.5.02-.99.03-1.49-.85.37-1.9.27-2.63.87.3.16.64.27.91.49.09,1.38.04,2.77.03,4.16.06.69-1.04.41-.98,1.12Z" fill="#fff"/><path d="M97.88,54.81c.82.38,1.54-.31,2.18-.72.25.46.64.77,1.16.88.54-.3,1.08-.6,1.62-.89-.17-.48-.67-.36-1.07-.44-.42-1.4.1-2.91-.3-4.31-.32-.97-1.52-1.37-2.43-1.04-.85.31-1.77.68-2.33,1.42-.07.38.28.62.48.88.26-.08.71.06.83-.26.25-.58.38-1.44,1.2-1.42.78.24.8,1.15.81,1.83-.87.49-1.87.7-2.76,1.14-1.21.68-.62,2.64.61,2.95ZM100,51.31c0,.76,0,1.53,0,2.29-.57.37-1.43.26-1.59-.49-.35-1.04.91-1.42,1.59-1.8Z" fill="#fff"/><path d="M113.86,48.35c-2.09.65-2.93,3.49-1.66,5.24,1.07,1.55,3.5,1.77,4.91.55,1.32-1.1,1.52-3.23.58-4.64-.81-1.22-2.48-1.62-3.82-1.15ZM116.34,52.68c-.08.51-.19,1.09-.61,1.44-.53.37-1.3.15-1.61-.39-.66-1.05-.78-2.4-.54-3.6.12-.54.39-1.16.95-1.35.69-.21,1.29.37,1.52.97.36.93.39,1.96.29,2.93Z" fill="#fff"/><path d="M136.65,48.17c-2.42.27-3.72,3.34-2.53,5.38.79,1.43,2.91,1.8,4.16.76.38-.34,1.13-.77.72-1.36-.67.46-1.5.94-2.32.59-.96-.34-1.36-1.41-1.38-2.35,1.27-.05,2.55-.05,3.8-.28.59-1.41-.98-3.01-2.43-2.74ZM135.32,50.47c.2-.69.46-1.63,1.31-1.72.77.16.97,1.02,1,1.69-.77.07-1.54.06-2.31.03Z" fill="#fff"/><path d="M154.93,48.32c-2.06.57-2.99,3.26-1.9,5.05.96,1.71,3.51,2.04,4.99.82,1.3-1.04,1.57-3.06.78-4.48-.73-1.33-2.46-1.86-3.87-1.4ZM157.26,53.03c-.11.6-.48,1.36-1.21,1.27-1-.08-1.36-1.22-1.51-2.06-.15-1.11-.22-2.53.71-3.34.66-.47,1.48.09,1.73.75.44,1.06.47,2.26.27,3.38Z" fill="#fff"/><path d="M166.6,53.86c-.15-1.33.04-2.67-.09-4-.07-.87-.77-1.72-1.69-1.7-.87-.09-1.53.55-2.2.99,0-.35,0-.7.01-1.06-.8.25-1.63.42-2.44.59-.35.6.81.42.75.96.04,1.32.03,2.64,0,3.96.08.74-1.11.38-1.04,1.14,1.19,0,2.39.04,3.58-.03-.05-.51-.65-.51-.84-.9-.06-1.37,0-2.74-.02-4.11.5-.25,1.06-.67,1.65-.39.59.23.65.95.66,1.5-.01,1.06.06,2.13-.09,3.18-.35.16-.8.26-.79.74,1.15.01,2.29.02,3.44,0-.04-.53-.63-.54-.9-.87Z" fill="#fff"/></svg>